# xmcd
#
# Track frame offsets:
#	150
#	13450
#	30555
#	49426
#	68390
#	82407
#	94879
#	107513
#	124999
#	139308
#	162822
#	185266
#	206282
#	219384
#
# Disc length: 3158 seconds
#
# Revision: 0
# Processed by: cddbd v1.5.2PL0 Copyright (c) Steve Scherf et al.
# Submitted via: EZCDAudioConverter 1.3.4.1
#
DISCID=c70c540e
DTITLE=Various Artist - O Melhor das Novelas - Nacional
DYEAR=2008
DGENRE=
TTITLE0=Marcelo D2/Cláudia - Pout-pourri: Desabafo/Deixa eu dizer
TTITLE1=Maria Rita - Tá perdoado
TTITLE2=Vanessa da Mata - Amado
TTITLE3=Skank - Beleza pura
TTITLE4=Caetano Veloso - Moça
TTITLE5=Marisa Monte - Rosa
TTITLE6=Monique Kessous - Com essa cor
TTITLE7=Jorge Vercillo - Devaneio
TTITLE8=Moinho - Esnoba
TTITLE9=Skank - Ainda gosto dela
TTITLE10=Nando Reis - Sou dela
TTITLE11=O Rappa - Meu mundo é o barro
TTITLE12=Ceu - Malemolencia
TTITLE13=Dani Carlos - Coisas que eu sei
EXTD=
EXTT0=
EXTT1=
EXTT2=
EXTT3=
EXTT4=
EXTT5=
EXTT6=
EXTT7=
EXTT8=
EXTT9=
EXTT10=
EXTT11=
EXTT12=
EXTT13=
PLAYORDER=
